<svg width="18" height="12" viewBox="0 0 18 12" fill="none" xmlns="http://www.w3.org/2000/svg">
<path d="M0 1.58707C0 1.00685 0.329928 0.693986 0.989783 0.648478L3.5325 0.665543C3.70315 0.665543 3.81692 0.75087 3.8738 0.921522C4.13547 1.77478 4.42842 2.51143 4.75266 3.13147C5.0769 3.7515 5.50069 4.4654 6.02402 5.27315C6.06953 5.37554 6.14348 5.42674 6.24587 5.42674C6.32551 5.42674 6.38808 5.38692 6.43359 5.30728L6.48478 5.11957L6.50185 2.16728C6.50185 1.9625 6.4535 1.82598 6.35679 1.75772C6.26009 1.68946 6.08091 1.63826 5.81924 1.60413C5.61446 1.57 5.51207 1.44486 5.51207 1.2287C5.51207 1.18319 5.51775 1.14906 5.52913 1.1263C5.76804 0.386812 6.45065 0.0170652 7.57696 0.0170652L8.53261 0C8.96493 0 9.3233 0.10808 9.60772 0.324239C9.89214 0.540399 10.0343 0.881703 10.0343 1.34815V5.22196C10.114 5.27884 10.1879 5.30728 10.2562 5.30728C10.4268 5.30728 10.5747 5.20489 10.6999 5.00011C11.9513 3.24808 12.6283 2.07627 12.7307 1.48467C12.7307 1.4733 12.742 1.44486 12.7648 1.39935C12.8444 1.2287 12.9753 1.0808 13.1573 0.955652C13.3393 0.830507 13.4986 0.745181 13.6351 0.699674C13.6806 0.67692 13.7318 0.665543 13.7887 0.665543H16.4338L16.6045 0.682609C16.832 0.682609 17.0083 0.790688 17.1335 1.00685C17.179 1.07511 17.2103 1.14906 17.2273 1.2287C17.2444 1.30833 17.2558 1.38797 17.2615 1.46761C17.2672 1.54725 17.27 1.59275 17.27 1.60413V1.72359C17.1904 2.19004 16.9884 2.68777 16.6642 3.21679C16.3399 3.74582 15.9275 4.3175 15.427 4.93185C14.9264 5.5462 14.6135 5.95007 14.4884 6.14348C14.386 6.28 14.3348 6.40515 14.3348 6.51891C14.3348 6.60993 14.3803 6.71232 14.4713 6.82609L16.9628 9.96609C17.0993 10.1481 17.1676 10.3472 17.1676 10.5634C17.1676 10.825 17.0652 11.0412 16.8604 11.2118C16.6557 11.3825 16.4111 11.4792 16.1266 11.502L15.8365 11.519H13.2426C13.2312 11.519 13.2085 11.5219 13.1743 11.5276C13.1402 11.5332 13.1175 11.5361 13.1061 11.5361C12.8558 11.5361 12.6226 11.428 12.4064 11.2118C12.3268 11.1208 11.7921 10.4496 10.8023 9.19815C10.7454 9.11851 10.6658 9.04457 10.5634 8.9763C10.5179 9.15833 10.4581 9.42 10.3842 9.7613C10.3102 10.1026 10.2562 10.3472 10.2221 10.4951L10.1709 10.7852C10.0571 11.1834 9.81819 11.4223 9.45413 11.502L9.21522 11.519H7.54283C6.59855 11.519 5.65712 11.0867 4.71853 10.2221C3.77995 9.35743 2.93522 8.23966 2.18435 6.86875C1.43348 5.49784 0.733804 3.90225 0.0853261 2.08196C0.028442 1.93406 0 1.76909 0 1.58707ZM10.2562 6.00696C10.0173 6.00696 9.80112 5.94154 9.60772 5.81071C9.41431 5.67987 9.31761 5.50069 9.31761 5.27315V1.34815C9.31761 1.12062 9.26072 0.958496 9.14696 0.861793C9.03319 0.765091 8.83409 0.716739 8.54967 0.716739L7.57696 0.75087C7.08775 0.75087 6.71801 0.836196 6.46772 1.00685C6.9683 1.24576 7.21859 1.63257 7.21859 2.16728V5.17076C7.19583 5.45518 7.08207 5.69125 6.87728 5.87897C6.6725 6.06668 6.44496 6.16054 6.19467 6.16054C5.85337 6.16054 5.5917 5.99558 5.40967 5.66565C4.52228 4.32319 3.86243 3.04899 3.43011 1.84304L3.27652 1.39935L1.00685 1.38228C0.858949 1.38228 0.776467 1.39082 0.759402 1.40788C0.742337 1.42495 0.733804 1.4733 0.733804 1.55293C0.733804 1.65533 0.745181 1.76341 0.767935 1.87717L1.1263 2.83283C2.08196 5.30159 3.12009 7.24703 4.24071 8.66913C5.36132 10.0912 6.46203 10.8023 7.54283 10.8023H9.24935C9.31761 10.8023 9.3688 10.7824 9.40293 10.7426C9.43707 10.7027 9.46551 10.6259 9.48826 10.5122L9.52239 10.3415L9.84663 8.83978C9.93765 8.635 10.0173 8.49848 10.0855 8.43022C10.2107 8.30507 10.3586 8.2425 10.5292 8.2425C10.8023 8.2425 11.081 8.40746 11.3654 8.73739L12.816 10.5804C12.907 10.7283 13.0037 10.8023 13.1061 10.8023H15.9218C16.2632 10.8023 16.4338 10.717 16.4338 10.5463C16.4338 10.4894 16.4167 10.4325 16.3826 10.3757L13.9082 7.28685C13.7147 7.04793 13.618 6.79196 13.618 6.51891C13.618 6.24587 13.7091 5.9842 13.8911 5.73391C14.039 5.50638 14.3263 5.1281 14.7529 4.59908C15.1795 4.07005 15.5521 3.57516 15.8707 3.1144C16.1892 2.65364 16.3997 2.23554 16.5021 1.86011L16.5533 1.63826C16.5419 1.61551 16.5362 1.57853 16.5362 1.52734C16.5362 1.47614 16.5305 1.43348 16.5191 1.39935H13.8399C13.6692 1.46761 13.5327 1.57 13.4303 1.70652L13.3279 2.03076C13.0435 2.81576 12.2983 4.02739 11.0924 5.66565C10.8535 5.89319 10.5747 6.00696 10.2562 6.00696Z" fill="white"/>
</svg>
